<?xml version="1.0" encoding="UTF-8"?>
<svg xmlns="http://www.w3.org/2000/svg" xmlns:xlink="http://www.w3.org/1999/xlink" width="1594px" height="1000px" viewBox="0 0 1594 1000" version="1.1">
<g id="surface1">
<path style=" stroke:none;fill-rule:nonzero;fill:rgb(0%,0%,0%);fill-opacity:1;" d="M 937.722656 90.570312 C 934.65625 93.203125 930.492188 98.464844 928.519531 102.414062 C 923.257812 112.9375 918.214844 144.957031 917.121094 176.535156 C 916.460938 192.105469 915.585938 207.238281 914.929688 210.085938 C 914.050781 214.914062 913.832031 214.914062 906.816406 211.402344 C 903.089844 209.429688 894.324219 202.632812 887.746094 196.492188 C 881.171875 190.132812 870.871094 182.015625 864.730469 178.507812 C 854.210938 172.367188 852.675781 172.148438 819.796875 171.273438 C 801.164062 170.832031 763.683594 171.929688 736.5 173.464844 C 709.320312 175.21875 680.824219 176.535156 672.933594 176.535156 L 658.6875 176.535156 L 658.25 146.710938 C 658.027344 130.261719 656.933594 112.9375 655.617188 107.894531 C 652.328125 96.492188 642.464844 87.71875 632.164062 87.71875 C 621.421875 87.71875 620.546875 92.542969 629.753906 103.070312 C 639.398438 114.472656 642.246094 125.65625 642.246094 152.851562 L 642.246094 174.34375 L 606.738281 174.5625 C 575.832031 174.5625 549.746094 176.753906 530.894531 181.359375 C 528.265625 182.015625 524.976562 184.210938 523.878906 186.402344 C 521.25 191.226562 517.742188 273.246094 515.332031 387.71875 C 514.234375 435.308594 512.480469 475 511.386719 476.097656 C 510.289062 477.191406 486.179688 479.167969 457.902344 480.261719 C 404.199219 482.675781 396.746094 483.332031 396.746094 486.84375 C 396.746094 492.761719 406.390625 493.421875 459.4375 491.226562 C 507.878906 489.035156 517.960938 489.253906 514.894531 492.105469 C 514.457031 492.542969 498.015625 494.078125 478.507812 495.394531 C 447.601562 497.367188 441.242188 498.464844 432.039062 503.289062 C 421.734375 508.332031 420.859375 508.550781 414.28125 505.261719 C 405.734375 500.878906 393.019531 502.191406 384.910156 507.894531 C 372.855469 516.667969 362.113281 550 364.304688 571.929688 C 365.183594 580.484375 369.347656 591.886719 378.773438 610.085938 C 379.210938 611.183594 366.277344 611.84375 349.839844 611.84375 C 322.21875 611.84375 312.574219 613.597656 321.78125 617.324219 C 330.550781 620.832031 480.917969 622.585938 781.4375 622.585938 C 1077.132812 622.585938 1199.445312 621.050781 1206.242188 616.886719 C 1211.941406 613.378906 1196.15625 612.28125 1140.261719 612.0625 L 1082.832031 611.84375 L 1089.191406 600.4375 C 1092.695312 594.296875 1097.082031 588.378906 1098.613281 587.71875 C 1100.148438 586.84375 1109.355469 584.867188 1119 583.332031 C 1138.507812 580.261719 1151.222656 574.78125 1156.042969 567.324219 C 1164.15625 554.824219 1162.839844 526.316406 1153.851562 515.351562 L 1148.371094 508.992188 L 1153.195312 502.414062 C 1156.921875 497.367188 1158.015625 492.105469 1158.894531 476.535156 C 1160.429688 444.296875 1152.316406 435.085938 1116.152344 428.726562 C 1104.535156 426.535156 1093.574219 423.902344 1092.257812 422.585938 C 1090.066406 421.050781 1089.410156 410.527344 1089.410156 383.550781 C 1089.410156 363.378906 1088.53125 344.296875 1087.4375 341.449219 C 1085.902344 337.28125 1078.230469 333.113281 1050.609375 321.273438 C 1019.265625 307.675781 1014.664062 306.359375 1002.605469 306.578125 L 989.234375 307.015625 L 987.703125 298.902344 C 987.042969 294.296875 986.386719 285.085938 986.386719 278.507812 C 986.386719 271.929688 985.507812 265.132812 984.632812 263.597656 C 983.535156 262.0625 976.742188 259.867188 969.289062 258.550781 C 956.792969 256.359375 955.917969 255.703125 957.015625 251.097656 C 958.988281 243.203125 952.191406 232.894531 940.355469 225.65625 C 927.640625 217.761719 928.300781 222.808594 931.585938 164.914062 C 934.65625 112.71875 934.65625 113.15625 946.273438 100.65625 C 951.535156 94.957031 955.480469 89.035156 954.601562 87.9375 C 952.191406 83.992188 943.863281 85.308594 937.722656 90.570312 Z M 806.644531 180.042969 C 802.480469 180.921875 796.34375 182.457031 793.054688 183.332031 C 784.285156 185.308594 781.875 189.035156 784.726562 196.492188 C 788.011719 204.824219 786.039062 208.332031 778.367188 208.332031 C 772.886719 208.332031 770.914062 206.796875 767.410156 200 C 759.957031 185.527344 760.175781 185.527344 718.089844 187.0625 C 664.824219 189.035156 661.097656 191.226562 673.152344 212.5 C 679.949219 224.121094 680.167969 226.097656 680.386719 248.246094 L 680.605469 271.710938 L 674.03125 272.367188 L 667.453125 273.027344 L 665.699219 293.859375 C 664.824219 305.261719 664.386719 323.027344 664.605469 333.332031 L 665.261719 351.972656 L 686.085938 351.972656 C 697.484375 351.972656 710.636719 351.316406 715.019531 350.4375 L 722.910156 349.121094 L 719.84375 356.359375 C 713.265625 372.585938 712.171875 450.65625 718.527344 462.28125 C 721.378906 467.105469 722.253906 467.324219 748.117188 466.667969 L 774.859375 466.007812 L 776.613281 456.140625 C 780.121094 436.621094 780.78125 435.308594 789.109375 435.308594 C 796.78125 435.308594 796.78125 435.085938 799.628906 422.148438 C 803.796875 402.414062 800.507812 379.824219 792.617188 374.5625 C 791.300781 373.683594 787.574219 372.808594 784.503906 372.808594 C 779.464844 372.808594 778.585938 371.710938 777.273438 364.035156 C 775.738281 353.507812 771.132812 350.21875 752.941406 346.273438 L 739.789062 343.203125 L 749.214844 342.542969 C 764.339844 341.449219 765.214844 338.15625 762.585938 299.78125 C 761.488281 281.796875 761.050781 266.449219 761.710938 265.132812 C 764.121094 261.621094 771.574219 262.9375 771.792969 266.886719 C 771.792969 269.078125 772.230469 287.5 772.230469 308.113281 L 772.667969 345.175781 L 780.339844 347.148438 C 787.792969 348.902344 843.03125 350.4375 904.84375 350.65625 L 933.777344 350.878906 L 933.777344 454.386719 L 927.859375 450.4375 C 911.859375 439.914062 910.324219 439.691406 870.210938 439.914062 C 806.863281 440.132812 794.152344 447.148438 779.683594 489.472656 C 777.273438 496.492188 773.765625 493.640625 773.765625 484.867188 L 773.765625 476.316406 L 763.460938 475 C 757.542969 474.34375 740.226562 473.246094 724.882812 472.367188 L 696.828125 471.050781 L 693.320312 480.042969 C 690.03125 488.378906 689.15625 489.253906 683.019531 488.597656 L 676.222656 487.9375 L 674.90625 428.726562 C 674.25 396.050781 673.59375 369.296875 673.371094 368.859375 C 673.152344 368.640625 671.398438 368.421875 669.648438 368.421875 C 665.261719 368.421875 664.605469 375.4375 663.070312 432.894531 C 661.976562 482.894531 660.878906 489.035156 653.863281 489.035156 C 649.480469 489.035156 647.945312 482.894531 651.234375 478.726562 C 653.644531 476.097656 654.523438 458.773438 655.617188 400.4375 C 656.496094 359.210938 658.25 309.648438 659.78125 290.351562 C 662.195312 258.113281 661.976562 254.167969 658.6875 247.585938 C 655.398438 241.449219 655.179688 236.621094 656.496094 215.351562 C 657.152344 201.535156 658.46875 189.035156 658.90625 187.5 C 659.78125 185.527344 677.097656 184.210938 721.816406 182.238281 C 755.789062 180.703125 786.039062 179.167969 789.109375 178.949219 C 792.175781 178.507812 798.972656 178.289062 804.453125 178.289062 L 814.316406 178.070312 Z M 856.621094 182.015625 C 872.183594 189.035156 886.214844 201.972656 881.390625 205.042969 C 880.292969 205.703125 873.28125 200.878906 865.828125 194.078125 C 856.621094 185.964844 849.828125 181.796875 844.347656 180.703125 C 832.289062 178.726562 830.976562 178.070312 839.523438 177.851562 C 843.6875 177.851562 851.359375 179.605469 856.621094 182.015625 Z M 625.808594 186.183594 C 643.34375 194.515625 643.34375 194.078125 642.464844 220.613281 C 642.246094 233.773438 641.152344 245.394531 640.054688 246.710938 C 632.164062 256.140625 626.027344 444.515625 632.601562 480.703125 L 633.917969 489.035156 L 615.503906 489.035156 C 605.203125 489.035156 580.433594 488.378906 560.265625 487.5 C 524.757812 486.183594 523.441406 485.964844 521.6875 481.140625 C 520.59375 478.507812 520.59375 463.816406 521.6875 448.027344 C 522.785156 432.675781 524.757812 374.121094 526.074219 317.984375 C 527.167969 261.84375 528.921875 209.867188 529.578125 202.414062 L 530.894531 188.816406 L 542.292969 186.621094 C 558.515625 183.332031 565.964844 182.675781 592.925781 182.457031 C 612.4375 182.238281 618.792969 182.894531 625.808594 186.183594 Z M 882.046875 212.71875 C 897.171875 214.472656 906.160156 219.515625 901.996094 223.464844 C 900.679688 224.5625 874.15625 226.753906 842.8125 228.070312 C 808.398438 229.605469 781.21875 231.796875 774.421875 233.773438 C 762.367188 237.0625 755.789062 243.640625 752.941406 255.042969 L 751.40625 260.964844 L 727.734375 260.964844 C 714.800781 260.964844 701.210938 261.621094 697.265625 262.28125 C 691.566406 263.597656 690.25 262.9375 688.277344 257.894531 C 684.992188 249.121094 689.15625 230.261719 695.730469 224.34375 C 702.085938 218.859375 709.757812 217.984375 794.589844 213.816406 C 868.238281 210.308594 864.511719 210.308594 882.046875 212.71875 Z M 941.890625 235.964844 C 945.175781 238.597656 948.246094 242.105469 948.683594 243.859375 C 949.34375 246.710938 944.300781 247.585938 915.804688 248.683594 C 868.898438 250.65625 846.320312 251.753906 802.917969 254.605469 C 782.09375 255.921875 764.121094 256.359375 762.804688 255.484375 C 755.351562 250.878906 765.875 240.132812 781.21875 236.84375 C 796.78125 233.773438 857.9375 230.703125 900.242188 231.140625 C 932.464844 231.359375 936.191406 231.796875 941.890625 235.964844 Z M 911.640625 259.210938 C 905.285156 272.148438 868.898438 324.5625 866.484375 324.5625 C 861.226562 324.5625 863.636719 316.667969 873.0625 303.726562 C 878.101562 296.492188 885.773438 285.085938 889.941406 278.507812 C 898.925781 263.816406 907.257812 254.386719 911.203125 254.386719 C 913.613281 254.386719 913.613281 255.484375 911.640625 259.210938 Z M 863.636719 258.773438 C 863.636719 263.597656 817.605469 331.140625 814.316406 331.140625 C 808.835938 331.140625 810.589844 326.535156 821.988281 309.648438 C 827.90625 300.878906 836.457031 287.28125 840.839844 279.605469 C 850.046875 262.9375 863.636719 250.65625 863.636719 258.773438 Z M 824.839844 264.914062 C 805.109375 295.394531 783.410156 326.753906 782.09375 326.753906 C 779.027344 326.753906 780.121094 309.429688 783.628906 301.316406 C 787.792969 291.007812 806.425781 263.597656 810.808594 260.964844 C 812.78125 259.867188 817.605469 258.773438 821.550781 258.773438 L 829.003906 258.773438 Z M 944.519531 278.949219 C 943.203125 281.796875 936.410156 291.667969 929.832031 301.097656 C 919.3125 316.226562 917.558594 317.984375 914.707031 315.132812 C 910.542969 311.183594 911.640625 308.992188 931.148438 282.238281 C 944.300781 264.253906 945.835938 262.71875 946.492188 267.984375 C 946.929688 271.273438 946.054688 276.097656 944.519531 278.949219 Z M 964.6875 270.832031 C 965.5625 274.34375 966.21875 284.429688 966.4375 292.984375 C 966.660156 308.113281 966.4375 308.773438 961.179688 310.085938 C 958.109375 310.964844 954.601562 310.964844 953.507812 310.308594 C 951.09375 308.773438 950.65625 280.703125 952.628906 269.957031 C 954.601562 260.527344 962.710938 261.183594 964.6875 270.832031 Z M 732.117188 272.585938 C 732.117188 277.851562 713.925781 300.4375 709.757812 300.4375 C 708.882812 300.4375 708.007812 297.585938 708.007812 293.859375 C 708.007812 289.472656 710.636719 284.867188 716.335938 278.507812 C 724.664062 269.957031 732.117188 267.105469 732.117188 272.585938 Z M 697.921875 286.402344 C 698.582031 288.378906 699.238281 298.902344 699.238281 310.308594 C 699.238281 331.359375 701.210938 336.402344 709.757812 336.621094 C 711.511719 336.621094 713.484375 337.71875 713.925781 339.253906 C 715.019531 342.105469 702.746094 345.175781 694.636719 343.859375 C 689.59375 343.203125 689.375 342.542969 688.714844 320.175781 C 688.277344 307.457031 688.714844 293.859375 689.375 289.914062 C 690.691406 282.457031 695.730469 280.484375 697.921875 286.402344 Z M 754.039062 296.710938 C 754.039062 303.289062 729.488281 331.359375 726.417969 328.289062 C 724.664062 326.753906 728.171875 321.273438 740.667969 305.261719 C 749.652344 293.859375 754.039062 291.226562 754.039062 296.710938 Z M 1028.472656 319.296875 C 1048.417969 326.535156 1071.652344 337.28125 1076.914062 341.667969 C 1080.203125 344.738281 1080.640625 350.65625 1080.421875 407.675781 C 1080.203125 478.507812 1079.105469 486.402344 1068.585938 489.472656 C 1059.597656 492.105469 947.589844 494.296875 946.273438 491.886719 C 944.082031 488.378906 941.890625 387.28125 943.421875 367.984375 C 945.175781 349.34375 945.175781 349.121094 951.972656 346.273438 C 955.917969 344.515625 970.382812 336.621094 984.195312 328.507812 C 998.003906 320.394531 1010.058594 313.597656 1010.9375 313.597656 C 1011.8125 313.597656 1019.703125 316.226562 1028.472656 319.296875 Z M 968.851562 322.367188 C 968.851562 323.683594 962.710938 328.726562 955.261719 333.550781 C 943.644531 341.007812 940.136719 342.324219 933.777344 341.226562 C 929.613281 340.570312 902.652344 339.914062 874.15625 339.914062 C 829.222656 339.914062 821.988281 339.472656 821.988281 336.621094 C 821.988281 334.210938 824.617188 333.332031 831.851562 333.332031 C 837.332031 333.332031 854.210938 330.921875 869.554688 328.070312 C 885.117188 325 900.023438 322.148438 903.089844 321.710938 C 915.148438 319.738281 968.851562 320.175781 968.851562 322.367188 Z M 739.570312 368.421875 C 740.667969 369.515625 740.886719 371.929688 740.007812 373.902344 C 738.914062 376.753906 737.160156 377.191406 732.554688 376.097656 C 724.882812 374.121094 722.910156 372.148438 724.664062 367.542969 C 725.761719 364.691406 727.515625 364.035156 731.898438 365.132812 C 734.96875 366.007812 738.472656 367.324219 739.570312 368.421875 Z M 755.570312 375.4375 C 754.914062 376.972656 754.476562 375.878906 754.476562 372.808594 C 754.476562 369.738281 754.914062 368.640625 755.570312 369.957031 C 756.011719 371.492188 756.011719 374.121094 755.570312 375.4375 Z M 789.984375 384.210938 C 793.054688 389.253906 789.328125 395.832031 783.410156 395.832031 C 780.121094 395.832031 779.027344 393.859375 778.585938 387.5 C 777.929688 379.824219 778.367188 379.167969 782.753906 379.824219 C 785.382812 380.261719 788.671875 382.238281 789.984375 384.210938 Z M 757.105469 399.5625 C 759.515625 420.832031 758.859375 428.070312 754.695312 427.191406 C 751.40625 426.535156 750.53125 423.683594 750.09375 410.308594 C 749.652344 401.316406 749.871094 392.761719 750.53125 391.007812 C 752.941406 384.867188 755.570312 388.597656 757.105469 399.5625 Z M 740.445312 408.332031 L 741.105469 425.4375 L 734.527344 425.4375 C 723.351562 425.4375 718.964844 414.914062 722.472656 397.148438 C 723.789062 390.570312 724.445312 390.132812 731.898438 390.789062 L 739.789062 391.449219 Z M 784.726562 407.894531 C 784.726562 408.992188 784.285156 410.085938 783.847656 410.085938 C 783.191406 410.085938 782.09375 408.992188 781.4375 407.894531 C 780.78125 406.578125 781.21875 405.703125 782.3125 405.703125 C 783.628906 405.703125 784.726562 406.578125 784.726562 407.894531 Z M 767.1875 434.648438 C 767.1875 439.691406 760.613281 441.226562 741.980469 440.351562 C 728.390625 439.691406 726.636719 439.253906 725.980469 435.085938 C 725.324219 430.703125 726.199219 430.484375 746.367188 430.703125 C 764.558594 430.921875 767.1875 431.359375 767.1875 434.648438 Z M 1136.972656 441.886719 C 1145.523438 447.585938 1149.25 458.992188 1148.152344 477.191406 C 1147.714844 485.964844 1146.617188 493.859375 1145.742188 494.957031 C 1143.550781 496.929688 1103 500 1098.835938 498.464844 C 1094.449219 496.710938 1092.039062 486.402344 1090.941406 465.570312 C 1089.191406 434.648438 1088.53125 435.527344 1111.765625 437.0625 C 1124.480469 437.9375 1133.46875 439.691406 1136.972656 441.886719 Z M 740.886719 451.753906 C 740.886719 455.261719 739.351562 456.140625 734.308594 456.140625 C 729.269531 456.140625 727.734375 455.261719 727.734375 451.753906 C 727.734375 448.246094 729.269531 447.367188 734.308594 447.367188 C 739.351562 447.367188 740.886719 448.246094 740.886719 451.753906 Z M 758.421875 451.753906 C 758.421875 454.167969 756.886719 456.140625 755.132812 456.140625 C 753.378906 456.140625 751.84375 454.167969 751.84375 451.753906 C 751.84375 449.34375 753.378906 447.367188 755.132812 447.367188 C 756.886719 447.367188 758.421875 449.34375 758.421875 451.753906 Z M 903.089844 449.78125 C 921.503906 453.949219 931.585938 469.296875 933.339844 495.394531 C 934.21875 507.457031 933.558594 511.84375 931.367188 513.378906 C 928.738281 514.914062 854.867188 516.449219 854.867188 514.691406 C 854.867188 509.648438 847.855469 476.972656 846.101562 473.683594 C 842.59375 467.105469 835.359375 463.15625 823.742188 461.621094 C 812.78125 459.867188 811.246094 458.332031 816.289062 454.167969 C 823.304688 448.464844 884.019531 445.394531 903.089844 449.78125 Z M 830.316406 471.929688 C 835.359375 476.972656 833.167969 480.261719 825.277344 480.261719 C 798.753906 480.261719 784.726562 506.140625 784.726562 554.824219 C 784.726562 579.824219 788.230469 596.492188 795.683594 605.921875 C 798.097656 608.992188 800.070312 611.84375 800.070312 612.28125 C 800.070312 613.15625 487.933594 611.84375 487.054688 610.746094 C 486.617188 610.308594 487.714844 607.675781 489.464844 605.042969 C 491.441406 602.414062 494.726562 592.761719 496.699219 583.550781 C 498.890625 574.34375 501.523438 565.570312 502.617188 564.035156 C 503.714844 562.71875 508.316406 561.402344 512.703125 561.402344 C 519.277344 561.402344 521.90625 562.9375 528.265625 570.175781 C 538.128906 581.578125 543.171875 582.238281 619.230469 584.648438 C 691.785156 587.0625 720.71875 587.0625 750.09375 584.648438 C 777.492188 582.457031 776.394531 583.550781 777.054688 555.921875 C 777.710938 533.992188 781.21875 516.886719 789.546875 495.175781 C 797.21875 474.5625 803.136719 469.296875 817.386719 469.296875 C 823.085938 469.296875 828.785156 470.394531 830.316406 471.929688 Z M 757.984375 481.359375 C 759.296875 482.015625 760.613281 484.867188 760.613281 487.9375 C 760.613281 493.421875 760.394531 493.421875 742.640625 493.203125 C 732.554688 493.203125 720.0625 492.324219 714.582031 491.667969 C 706.035156 490.351562 704.71875 489.472656 704.058594 484.429688 L 703.402344 478.726562 L 729.269531 479.605469 C 743.515625 480.042969 756.449219 480.921875 757.984375 481.359375 Z M 526.949219 501.753906 C 527.386719 502.632812 526.949219 507.457031 525.851562 512.28125 C 524.757812 516.886719 523.003906 528.070312 521.90625 536.84375 C 520.8125 545.613281 519.496094 553.507812 518.839844 554.167969 C 518.179688 554.824219 509.414062 555.703125 499.332031 556.359375 C 485.960938 557.238281 480.261719 556.578125 477.628906 554.386719 C 474.78125 552.191406 460.3125 509.210938 460.3125 503.507812 C 460.3125 500.878906 525.195312 499.121094 526.949219 501.753906 Z M 547.992188 503.289062 C 547.992188 505.042969 545.800781 512.0625 543.171875 519.078125 C 538.128906 532.457031 536.8125 550 539.882812 564.035156 C 542.292969 575.4375 537.910156 574.78125 532.648438 562.9375 C 527.828125 552.414062 526.949219 533.113281 530.675781 521.710938 C 535.277344 507.894531 547.992188 494.296875 547.992188 503.289062 Z M 587.449219 504.605469 C 587.449219 505.921875 585.914062 513.15625 583.941406 520.613281 C 581.308594 530.042969 580.652344 539.914062 581.53125 554.386719 C 582.40625 572.367188 581.96875 574.78125 578.898438 574.121094 C 574.515625 573.246094 570.132812 560.964844 570.132812 548.246094 C 569.910156 536.621094 575.171875 514.253906 579.996094 507.015625 C 583.28125 501.972656 587.449219 500.4375 587.449219 504.605469 Z M 629.972656 516.886719 C 628.875 523.902344 628.21875 539.691406 628.4375 551.972656 C 628.65625 570.613281 628.21875 574.5625 625.589844 574.5625 C 621.863281 574.5625 615.941406 561.621094 615.503906 553.070312 C 615.285156 546.492188 620.984375 519.957031 624.492188 510.308594 C 625.808594 507.015625 628 504.386719 629.3125 504.386719 C 631.066406 504.386719 631.289062 507.894531 629.972656 516.886719 Z M 709.980469 507.015625 L 741.542969 509.648438 L 745.488281 516.226562 C 754.257812 530.484375 753.816406 530.703125 711.511719 530.703125 L 673.152344 530.703125 L 668.769531 524.78125 C 663.507812 518.203125 660.878906 510.085938 663.070312 506.796875 C 664.824219 503.726562 671.621094 503.726562 709.980469 507.015625 Z M 830.757812 514.253906 C 835.796875 524.34375 836.675781 580.484375 832.070312 589.691406 C 827.25 598.683594 816.507812 599.34375 808.617188 590.789062 C 803.796875 585.527344 803.355469 583.113281 802.699219 558.773438 C 802.261719 544.296875 802.480469 528.949219 803.355469 524.78125 C 806.644531 507.457031 823.960938 500.65625 830.757812 514.253906 Z M 448.476562 527.191406 C 461.191406 549.78125 454.613281 587.5 437.957031 589.472656 C 428.75 590.570312 424.585938 580.261719 424.585938 555.921875 C 424.585938 536.183594 426.339844 529.605469 433.570312 521.273438 C 438.613281 515.570312 442.996094 517.542969 448.476562 527.191406 Z M 398.71875 523.902344 C 404.417969 529.605469 406.390625 540.789062 405.074219 559.648438 C 403.761719 578.070312 398.5 586.621094 388.855469 586.621094 C 379.648438 586.621094 376.582031 579.167969 377.894531 560.964844 C 379.210938 544.078125 382.9375 528.949219 387.539062 523.464844 C 391.703125 518.640625 393.457031 518.640625 398.71875 523.902344 Z M 610.464844 528.726562 C 610.464844 535.085938 601.039062 540.132812 592.925781 538.15625 C 583.503906 535.746094 585.914062 523.027344 596.214844 521.492188 C 604.984375 520.175781 610.464844 522.808594 610.464844 528.726562 Z M 642.246094 525.21875 C 642.246094 528.289062 641.371094 530.703125 640.054688 530.703125 C 638.960938 530.703125 637.863281 528.289062 637.863281 525.21875 C 637.863281 522.148438 638.960938 519.738281 640.054688 519.738281 C 641.371094 519.738281 642.246094 522.148438 642.246094 525.21875 Z M 652.109375 524.34375 C 652.988281 526.753906 652.988281 529.386719 652.109375 530.261719 C 650.578125 531.796875 646.632812 526.535156 646.632812 522.367188 C 646.632812 517.984375 650.578125 519.296875 652.109375 524.34375 Z M 1151.003906 523.246094 C 1155.167969 528.289062 1154.949219 557.457031 1150.785156 562.5 C 1142.015625 573.027344 1121.628906 575.21875 997.347656 578.949219 C 959.425781 580.042969 916.460938 581.796875 901.777344 582.457031 L 875.253906 583.992188 L 873.9375 575.4375 C 873.0625 570.832031 872.402344 559.210938 872.402344 550 C 872.402344 534.210938 872.84375 532.894531 877.445312 531.796875 C 892.132812 528.726562 940.355469 526.097656 1021.457031 523.902344 C 1071.433594 522.585938 1112.863281 521.050781 1113.300781 520.613281 C 1113.738281 520.175781 1121.851562 519.738281 1131.054688 519.738281 C 1143.988281 519.738281 1148.8125 520.613281 1151.003906 523.246094 Z M 566.1875 523.246094 C 566.84375 524.121094 566.625 526.535156 565.308594 528.726562 C 563.117188 533.113281 547.992188 534.867188 547.992188 530.703125 C 547.992188 529.386719 547.992188 527.851562 547.992188 526.753906 C 547.773438 525.878906 551.0625 524.5625 555.007812 523.902344 C 558.953125 523.027344 562.898438 522.367188 563.554688 522.148438 C 564.210938 522.148438 565.527344 522.585938 566.1875 523.246094 Z M 866.046875 540.789062 C 866.921875 544.296875 867.582031 554.824219 867.800781 564.253906 C 868.019531 582.894531 865.390625 585.527344 859.25 573.246094 C 854.867188 564.253906 853.332031 537.28125 857.277344 534.867188 C 861.882812 532.015625 864.511719 533.773438 866.046875 540.789062 Z M 747.460938 543.203125 C 749.214844 544.738281 740.007812 559.648438 734.96875 563.15625 C 731.023438 565.570312 720.28125 566.667969 690.46875 567.542969 C 656.054688 568.421875 651.015625 568.203125 651.015625 565.351562 C 651.015625 563.378906 652.550781 560.746094 654.523438 558.992188 C 656.277344 557.457031 659.78125 552.414062 662.195312 547.585938 L 666.578125 539.035156 L 706.472656 540.570312 C 728.390625 541.449219 746.804688 542.542969 747.460938 543.203125 Z M 561.582031 548.683594 C 563.554688 550.21875 565.746094 556.140625 566.625 562.0625 C 567.71875 570.394531 567.28125 572.585938 564.652344 573.683594 C 555.226562 577.191406 543.609375 566.886719 543.609375 555.042969 C 543.609375 547.367188 554.789062 543.421875 561.582031 548.683594 Z M 646.632812 548.464844 C 646.632812 552.414062 637.644531 563.816406 635.453125 562.5 C 633.261719 560.964844 632.820312 549.78125 635.011719 547.585938 C 637.425781 545.175781 646.632812 545.832031 646.632812 548.464844 Z M 611.558594 561.402344 C 614.628906 574.121094 613.53125 576.753906 604.765625 576.753906 C 594.902344 576.753906 590.078125 573.246094 588.324219 564.691406 C 586.132812 553.070312 588.105469 550.4375 599.285156 550.4375 L 608.929688 550.4375 Z M 1024.746094 600 C 1029.128906 605.484375 1032.636719 610.308594 1032.199219 610.746094 C 1031.761719 611.183594 995.152344 611.84375 951.09375 612.28125 L 870.871094 612.9375 L 891.035156 593.203125 L 922.820312 591.886719 C 940.355469 591.226562 968.632812 590.570312 985.507812 590.351562 L 1016.636719 589.914062 Z M 1024.746094 600 "/>
<path style=" stroke:none;fill-rule:nonzero;fill:rgb(0%,0%,0%);fill-opacity:1;" d="M 565.089844 199.78125 C 558.074219 200.65625 550.402344 202.632812 548.210938 203.949219 C 543.390625 206.359375 540.757812 219.078125 541.855469 234.429688 C 542.511719 243.203125 543.171875 244.515625 549.089844 246.050781 C 557.417969 248.464844 620.546875 245.832031 624.273438 242.984375 C 630.191406 237.9375 624.929688 213.597656 615.941406 203.949219 C 610.246094 197.808594 608.929688 197.367188 593.585938 197.585938 C 584.816406 197.808594 571.882812 198.683594 565.089844 199.78125 Z M 608.050781 207.457031 C 612.21875 211.402344 619.011719 233.773438 617.039062 236.84375 C 616.164062 238.15625 602.792969 239.035156 583.0625 239.035156 L 550.621094 239.035156 L 549.308594 233.332031 C 547.992188 228.070312 548.648438 220.394531 551.5 210.085938 C 552.816406 205.484375 557.199219 204.605469 583.503906 204.167969 C 600.160156 203.949219 605.421875 204.605469 608.050781 207.457031 Z M 608.050781 207.457031 "/>
<path style=" stroke:none;fill-rule:nonzero;fill:rgb(0%,0%,0%);fill-opacity:1;" d="M 991.867188 341.226562 C 978.714844 348.027344 966.21875 354.824219 964.246094 356.578125 C 961.179688 359.429688 960.300781 367.984375 958.988281 412.0625 C 957.234375 467.324219 958.546875 478.070312 966.660156 482.457031 C 970.605469 484.429688 1023.648438 483.773438 1053.898438 481.140625 L 1067.488281 479.824219 L 1067.269531 432.457031 C 1067.269531 406.359375 1066.394531 377.632812 1065.515625 368.859375 C 1063.761719 350.4375 1062.226562 348.683594 1040.089844 337.9375 C 1018.609375 327.414062 1018.609375 327.414062 991.867188 341.226562 Z M 1012.691406 404.167969 C 1012.691406 464.914062 1012.03125 475.878906 1008.085938 475.878906 C 1005.894531 475.878906 1005.238281 348.902344 1007.429688 343.421875 C 1011.375 333.113281 1012.691406 348.464844 1012.691406 404.167969 Z M 1026.71875 345.613281 C 1028.472656 350.21875 1028.472656 427.414062 1026.5 454.386719 C 1025.402344 471.273438 1024.527344 475.878906 1021.894531 475.878906 C 1019.265625 475.878906 1018.828125 473.464844 1019.921875 460.964844 C 1020.800781 452.851562 1021.457031 422.808594 1021.457031 394.078125 C 1021.457031 346.929688 1022.773438 335.308594 1026.71875 345.613281 Z M 999.539062 410.085938 C 999.539062 450 998.660156 473.902344 997.347656 474.78125 C 995.8125 475.65625 995.152344 453.507812 995.152344 410.085938 C 995.152344 366.667969 995.8125 344.515625 997.347656 345.394531 C 998.660156 346.273438 999.539062 370.175781 999.539062 410.085938 Z M 1042.0625 351.316406 C 1042.71875 354.167969 1043.378906 383.332031 1043.378906 416.007812 C 1043.378906 465.132812 1042.9375 475.878906 1040.308594 475.878906 C 1035.925781 475.878906 1034.828125 453.726562 1036.144531 396.273438 C 1037.460938 349.78125 1038.773438 339.253906 1042.0625 351.316406 Z M 987.480469 353.070312 C 989.453125 356.359375 985.949219 475.878906 983.753906 475.878906 C 982.878906 475.878906 982.003906 447.808594 982.003906 413.378906 C 982.003906 355.921875 982.878906 345.613281 987.480469 353.070312 Z M 1058.28125 416.449219 C 1057.84375 453.507812 1056.75 474.78125 1055.433594 474.78125 C 1054.117188 474.78125 1053.023438 452.632812 1052.582031 413.597656 C 1052.144531 358.992188 1052.363281 352.851562 1055.433594 355.261719 C 1058.28125 357.675781 1058.722656 366.226562 1058.28125 416.449219 Z M 974.332031 382.675781 C 976.304688 409.648438 974.988281 472.808594 972.578125 475.21875 C 971.480469 476.097656 969.945312 475.4375 968.851562 473.683594 C 966.4375 469.957031 965.78125 363.378906 968.191406 361.183594 C 971.917969 357.457031 973.015625 361.183594 974.332031 382.675781 Z M 974.332031 382.675781 "/>
<path style=" stroke:none;fill-rule:nonzero;fill:rgb(0%,0%,0%);fill-opacity:1;" d="M 1102.121094 454.167969 C 1099.273438 455.703125 1098.175781 459.210938 1098.175781 465.570312 C 1098.175781 475.878906 1101.027344 480.261719 1108.039062 480.261719 C 1110.671875 480.261719 1113.738281 479.167969 1115.273438 477.632812 C 1119.4375 473.464844 1118.34375 460.964844 1113.519531 456.140625 C 1108.480469 451.097656 1107.382812 450.878906 1102.121094 454.167969 Z M 1102.121094 454.167969 "/>
<path style=" stroke:none;fill-rule:nonzero;fill:rgb(0%,0%,0%);fill-opacity:1;" d="M 1122.945312 453.289062 C 1119.65625 454.386719 1119.21875 471.050781 1122.070312 475.65625 C 1124.480469 479.386719 1134.34375 479.605469 1138.726562 475.878906 C 1142.234375 473.027344 1143.113281 463.378906 1140.261719 459.210938 C 1136.753906 453.949219 1128.425781 450.878906 1122.945312 453.289062 Z M 1122.945312 453.289062 "/>
<path style=" stroke:none;fill-rule:nonzero;fill:rgb(0%,0%,0%);fill-opacity:1;" d="M 899.363281 463.816406 C 895.417969 466.449219 894.324219 469.515625 894.324219 476.753906 C 894.324219 488.597656 897.171875 491.226562 909.667969 491.226562 C 921.503906 491.226562 925.011719 488.378906 925.011719 478.949219 C 925.011719 465.132812 909.886719 456.359375 899.363281 463.816406 Z M 899.363281 463.816406 "/>
<path style=" stroke:none;fill-rule:nonzero;fill:rgb(0%,0%,0%);fill-opacity:1;" d="M 864.292969 464.914062 C 861.664062 466.007812 859.03125 468.859375 858.15625 471.492188 C 856.183594 477.414062 858.59375 487.9375 862.757812 491.449219 C 866.703125 494.738281 882.488281 495.175781 885.773438 491.886719 C 888.84375 488.816406 888.84375 469.957031 885.554688 466.007812 C 882.488281 462.5 871.746094 461.84375 864.292969 464.914062 Z M 864.292969 464.914062 "/>
<path style=" stroke:none;fill-rule:nonzero;fill:rgb(0%,0%,0%);fill-opacity:1;" d="M 389.730469 635.308594 C 380.085938 636.84375 382.28125 642.105469 393.019531 643.640625 C 410.554688 645.832031 790.425781 648.027344 927.203125 646.492188 C 1105.410156 644.515625 1131.054688 643.203125 1120.097656 635.964844 C 1116.808594 633.992188 403.324219 633.332031 389.730469 635.308594 Z M 389.730469 635.308594 "/>
<path style=" stroke:none;fill-rule:nonzero;fill:rgb(0%,0%,0%);fill-opacity:1;" d="M 736.5 706.140625 C 734.75 707.238281 724.664062 708.332031 714.144531 708.332031 C 695.292969 708.332031 692.441406 709.429688 697.265625 714.253906 C 698.800781 715.789062 699.238281 726.972656 698.800781 746.492188 L 698.140625 776.316406 L 733.871094 776.316406 L 736.28125 769.515625 C 739.789062 759.429688 739.351562 758.113281 734.089844 763.378906 C 731.023438 766.449219 727.515625 767.542969 721.597656 767.105469 C 713.484375 766.449219 713.484375 766.449219 713.484375 756.578125 C 713.484375 747.148438 713.925781 746.710938 720.0625 746.050781 C 726.417969 745.175781 729.925781 742.542969 729.925781 737.9375 C 729.925781 736.621094 726.199219 735.964844 720.9375 736.402344 L 712.171875 737.28125 L 712.828125 727.851562 L 713.484375 718.203125 L 724.882812 717.542969 C 733.871094 717.105469 736.941406 715.789062 738.914062 712.5 C 741.980469 706.796875 740.667969 703.507812 736.5 706.140625 Z M 736.5 706.140625 "/>
<path style=" stroke:none;fill-rule:nonzero;fill:rgb(0%,0%,0%);fill-opacity:1;" d="M 923.914062 706.140625 C 921.503906 707.238281 911.859375 708.113281 902.214844 708.113281 C 886.652344 708.332031 885.335938 708.773438 886.871094 712.0625 C 889.5 717.105469 889.5 767.542969 886.871094 772.367188 C 885.335938 775.878906 886.652344 776.316406 902.652344 776.316406 C 918.433594 776.316406 920.847656 775.878906 923.695312 771.492188 C 925.667969 768.859375 927.203125 764.691406 927.203125 762.28125 C 927.203125 758.113281 926.984375 758.113281 922.601562 762.9375 C 919.09375 766.667969 916.023438 767.542969 910.105469 767.105469 C 901.996094 766.449219 901.996094 766.449219 901.996094 756.578125 C 901.996094 747.148438 902.433594 746.710938 908.570312 746.050781 C 914.929688 745.175781 918.433594 742.542969 918.433594 737.9375 C 918.433594 736.621094 914.707031 735.964844 909.449219 736.402344 L 900.679688 737.28125 L 901.335938 727.851562 L 901.996094 718.203125 L 912.957031 717.542969 C 921.066406 717.105469 924.792969 715.570312 927.640625 712.0625 C 933.777344 704.167969 932.683594 702.414062 923.914062 706.140625 Z M 923.914062 706.140625 "/>
<path style=" stroke:none;fill-rule:nonzero;fill:rgb(0%,0%,0%);fill-opacity:1;" d="M 415.378906 710.527344 C 399.15625 711.402344 395.652344 712.28125 394.992188 715.351562 C 394.335938 718.421875 395.652344 718.859375 402.226562 717.761719 C 407.925781 716.886719 410.996094 717.324219 412.308594 719.515625 C 414.71875 723.246094 414.71875 762.5 412.308594 776.753906 L 410.554688 787.0625 L 417.351562 781.359375 L 424.144531 775.65625 L 426.339844 718.203125 L 434.667969 718.421875 C 440.148438 718.640625 442.777344 717.761719 442.777344 715.789062 C 442.777344 710.746094 435.761719 709.429688 415.378906 710.527344 Z M 415.378906 710.527344 "/>
<path style=" stroke:none;fill-rule:nonzero;fill:rgb(0%,0%,0%);fill-opacity:1;" d="M 456.804688 713.15625 C 457.464844 716.007812 458.121094 731.359375 458.121094 747.367188 C 458.121094 776.535156 458.121094 776.535156 463.164062 775.878906 C 467.546875 775.21875 467.984375 773.902344 468.644531 761.402344 C 469.300781 749.5625 469.957031 747.808594 473.464844 747.808594 C 475.875 747.808594 477.847656 748.027344 477.847656 748.246094 C 477.847656 748.683594 480.261719 754.605469 483.109375 761.84375 C 487.273438 771.929688 490.125 775.65625 497.359375 780.042969 C 505.46875 784.867188 509.414062 784.648438 504.371094 779.386719 C 503.058594 778.289062 498.890625 770.613281 494.726562 762.28125 L 487.273438 747.148438 L 492.535156 739.253906 C 499.113281 729.605469 498.015625 720.613281 489.6875 713.15625 C 485.082031 709.210938 481.574219 708.332031 469.738281 708.332031 C 455.929688 708.332031 455.492188 708.550781 456.804688 713.15625 Z M 483.988281 719.738281 C 485.519531 721.273438 486.617188 724.78125 486.617188 727.632812 C 486.617188 736.84375 473.246094 743.203125 470.398438 735.527344 C 468.644531 730.921875 468.644531 720.394531 470.617188 718.640625 C 473.027344 716.226562 481.136719 716.886719 483.988281 719.738281 Z M 483.988281 719.738281 "/>
<path style=" stroke:none;fill-rule:nonzero;fill:rgb(0%,0%,0%);fill-opacity:1;" d="M 516.429688 712.0625 C 517.304688 714.253906 518.621094 727.414062 519.496094 741.226562 C 520.8125 767.984375 523.003906 774.121094 531.992188 778.289062 C 539.003906 781.578125 542.730469 781.359375 549.964844 777.632812 C 559.171875 772.808594 561.144531 765.789062 561.144531 735.746094 L 561.144531 708.332031 L 553.472656 708.332031 C 546.457031 708.332031 545.800781 708.773438 547.992188 712.5 C 550.402344 717.105469 551.0625 758.332031 548.867188 764.035156 C 546.457031 770.175781 539.882812 772.367188 536.15625 768.421875 C 533.304688 765.789062 532.648438 759.429688 532.648438 736.621094 L 532.648438 708.332031 L 523.660156 708.332031 C 515.769531 708.332031 514.894531 708.773438 516.429688 712.0625 Z M 516.429688 712.0625 "/>
<path style=" stroke:none;fill-rule:nonzero;fill:rgb(0%,0%,0%);fill-opacity:1;" d="M 590.953125 712.9375 C 587.007812 716.007812 585.253906 719.515625 585.253906 723.902344 C 585.253906 733.773438 588.761719 738.378906 600.597656 744.515625 C 613.09375 750.878906 614.628906 752.851562 612.875 759.867188 C 610.246094 770.175781 592.925781 769.515625 592.925781 759.210938 C 592.707031 751.972656 590.734375 751.753906 585.035156 757.894531 L 579.777344 763.597656 L 587.007812 769.957031 C 592.269531 774.78125 596.214844 776.316406 603.011719 776.316406 C 619.230469 776.316406 629.753906 759.429688 622.300781 745.394531 C 621.203125 742.984375 614.628906 738.597656 608.050781 735.746094 C 598.1875 731.359375 596.214844 729.605469 596.214844 725 C 596.214844 721.929688 597.3125 718.859375 598.625 718.203125 C 603.011719 715.351562 611.121094 719.296875 613.09375 725 L 614.847656 730.484375 L 620.109375 725 L 625.148438 719.515625 L 619.230469 714.035156 C 611.558594 706.796875 599.285156 706.359375 590.953125 712.9375 Z M 590.953125 712.9375 "/>
<path style=" stroke:none;fill-rule:nonzero;fill:rgb(0%,0%,0%);fill-opacity:1;" d="M 636.546875 714.472656 C 632.601562 720.394531 633.917969 723.464844 638.738281 719.515625 C 640.492188 717.984375 644.65625 717.105469 648.164062 717.542969 L 654.304688 718.203125 L 654.960938 746.492188 C 655.179688 762.28125 654.523438 777.632812 653.425781 781.140625 C 650.578125 788.816406 652.988281 789.035156 660.441406 781.140625 C 665.921875 775.4375 666.140625 774.121094 666.796875 746.710938 L 667.453125 718.203125 L 673.59375 717.542969 C 677.097656 717.105469 681.265625 717.984375 683.019531 719.515625 C 686.742188 722.585938 686.964844 721.273438 683.457031 714.035156 C 681.042969 708.550781 680.605469 708.332031 660.441406 708.992188 C 641.589844 709.429688 639.617188 709.867188 636.546875 714.472656 Z M 636.546875 714.472656 "/>
<path style=" stroke:none;fill-rule:nonzero;fill:rgb(0%,0%,0%);fill-opacity:1;" d="M 756.230469 712.5 C 757.984375 715.789062 758.421875 726.972656 757.984375 746.929688 L 757.324219 776.316406 L 763.460938 776.316406 C 776.394531 776.316406 789.109375 771.492188 795.683594 763.816406 C 801.382812 757.238281 802.261719 754.824219 802.261719 742.984375 C 802.261719 719.738281 793.492188 710.964844 767.410156 708.773438 C 753.597656 707.675781 753.597656 707.675781 756.230469 712.5 Z M 779.464844 720.613281 C 786.257812 725.21875 791.300781 734.648438 791.300781 742.761719 C 791.300781 753.949219 777.710938 770.175781 771.574219 766.449219 C 769.160156 764.914062 768.503906 720.832031 770.914062 718.640625 C 772.886719 716.449219 773.109375 716.667969 779.464844 720.613281 Z M 779.464844 720.613281 "/>
<path style=" stroke:none;fill-rule:nonzero;fill:rgb(0%,0%,0%);fill-opacity:1;" d="M 825.277344 742.105469 L 825.277344 776.316406 L 831.414062 776.316406 C 837.332031 776.316406 837.332031 776.097656 837.332031 761.84375 C 837.332031 748.464844 837.550781 747.585938 841.933594 748.246094 C 845.441406 748.683594 847.855469 752.191406 851.359375 761.621094 C 855.085938 771.929688 857.71875 775.21875 864.949219 779.605469 L 873.9375 785.085938 L 864.074219 765.351562 L 853.992188 745.613281 L 858.8125 740.570312 C 862.101562 737.0625 863.636719 732.675781 863.636719 726.535156 C 863.636719 713.816406 858.15625 709.867188 839.960938 708.773438 L 825.277344 707.894531 Z M 851.359375 720.613281 C 855.964844 725.21875 855.746094 730.921875 850.703125 735.527344 C 844.128906 741.449219 838.648438 739.253906 837.769531 730.484375 C 837.332031 726.535156 837.550781 721.929688 838.210938 720.175781 C 839.742188 716.007812 847.195312 716.226562 851.359375 720.613281 Z M 851.359375 720.613281 "/>
<path style=" stroke:none;fill-rule:nonzero;fill:rgb(0%,0%,0%);fill-opacity:1;" d="M 948.246094 712.0625 C 949.34375 714.253906 950.21875 729.605469 950.21875 746.273438 L 950.21875 776.316406 L 963.808594 776.316406 C 980.6875 776.316406 983.535156 775.21875 987.703125 767.105469 C 991.867188 758.992188 990.332031 757.015625 984.414062 762.9375 C 981.5625 765.789062 976.960938 767.542969 972.359375 767.542969 C 965.34375 767.542969 964.90625 767.105469 963.589844 757.457031 C 962.933594 751.753906 962.273438 738.378906 962.273438 727.851562 L 962.273438 708.332031 L 954.382812 708.332031 C 947.589844 708.332031 946.710938 708.773438 948.246094 712.0625 Z M 948.246094 712.0625 "/>
<path style=" stroke:none;fill-rule:nonzero;fill:rgb(0%,0%,0%);fill-opacity:1;" d="M 1019.484375 711.183594 C 1010.277344 715.789062 1005.457031 724.78125 1004.359375 738.816406 C 1002.605469 761.621094 1011.59375 776.316406 1026.9375 776.316406 C 1041.625 776.316406 1052.144531 762.0625 1052.144531 742.324219 C 1052.144531 728.507812 1048.417969 719.738281 1039.871094 712.9375 C 1033.292969 707.675781 1027.15625 707.238281 1019.484375 711.183594 Z M 1034.390625 722.808594 C 1037.898438 727.414062 1038.992188 731.796875 1038.992188 742.105469 C 1038.992188 757.675781 1035.484375 766.226562 1028.472656 767.105469 C 1024.527344 767.761719 1022.773438 766.007812 1019.265625 758.332031 C 1014.003906 746.929688 1013.785156 739.253906 1018.167969 728.726562 C 1023.648438 715.789062 1027.8125 714.253906 1034.390625 722.808594 Z M 1034.390625 722.808594 "/>
<path style=" stroke:none;fill-rule:nonzero;fill:rgb(0%,0%,0%);fill-opacity:1;" d="M 461.410156 829.167969 C 459 830.042969 449.355469 830.921875 440.148438 830.921875 C 430.941406 831.140625 422.613281 832.015625 421.953125 833.332031 C 421.296875 834.429688 421.734375 835.527344 423.050781 835.527344 C 424.804688 835.527344 425.242188 845.175781 425.023438 866.667969 L 424.804688 898.027344 L 437.515625 898.683594 C 454.394531 899.5625 459 898.246094 462.066406 891.449219 C 466.230469 882.457031 465.136719 880.484375 459.4375 885.746094 C 455.710938 889.253906 452.203125 890.570312 446.941406 889.914062 C 439.710938 889.253906 439.488281 889.035156 439.488281 879.386719 C 439.488281 870.175781 439.929688 869.515625 445.628906 868.859375 C 448.914062 868.421875 452.640625 866.226562 453.738281 863.816406 C 456.367188 859.210938 455.929688 858.992188 445.40625 859.648438 C 438.175781 860.085938 438.175781 860.085938 438.832031 850.4375 L 439.488281 841.007812 L 450.667969 840.351562 C 459.875 839.914062 462.285156 838.816406 464.699219 834.429688 C 468.203125 827.851562 467.328125 826.753906 461.410156 829.167969 Z M 461.410156 829.167969 "/>
<path style=" stroke:none;fill-rule:nonzero;fill:rgb(0%,0%,0%);fill-opacity:1;" d="M 648.164062 841.886719 C 646.632812 859.429688 638.300781 892.324219 633.261719 901.097656 C 630.847656 905.042969 629.3125 908.992188 629.972656 909.429688 C 630.628906 910.085938 635.011719 907.457031 639.617188 903.507812 C 645.972656 898.464844 649.042969 893.859375 650.796875 886.84375 C 652.769531 878.726562 654.082031 877.191406 658.46875 877.191406 C 664.167969 877.191406 666.359375 880.921875 666.359375 890.351562 C 666.359375 897.808594 669.207031 900 676.003906 898.246094 C 680.167969 897.148438 680.824219 895.832031 680.167969 891.007812 C 678.195312 879.605469 665.699219 834.429688 663.949219 832.457031 C 663.070312 831.359375 659.34375 830.261719 655.835938 830.042969 C 649.480469 829.605469 649.261719 829.824219 648.164062 841.886719 Z M 659.78125 864.472656 C 659.78125 869.515625 659.125 870.832031 657.371094 869.078125 C 656.054688 867.761719 655.617188 864.691406 656.496094 862.0625 C 658.46875 855.484375 659.78125 856.359375 659.78125 864.472656 Z M 659.78125 864.472656 "/>
<path style=" stroke:none;fill-rule:nonzero;fill:rgb(0%,0%,0%);fill-opacity:1;" d="M 1117.464844 830.484375 C 1106.726562 830.921875 1098.175781 832.238281 1098.175781 833.332031 C 1098.175781 834.648438 1099.273438 835.527344 1100.585938 835.527344 C 1102.121094 835.527344 1102.558594 845.613281 1102.121094 867.324219 L 1101.464844 899.121094 L 1116.808594 899.121094 C 1133.46875 899.121094 1135.660156 898.246094 1139.605469 891.007812 C 1143.769531 883.113281 1142.453125 880.484375 1136.753906 885.746094 C 1133.027344 889.253906 1129.523438 890.570312 1124.261719 889.914062 C 1117.027344 889.253906 1116.808594 889.035156 1116.808594 879.386719 C 1116.808594 870.613281 1117.464844 869.515625 1122.289062 868.859375 C 1127.328125 868.203125 1133.25 863.15625 1133.25 859.429688 C 1133.25 858.550781 1130.398438 858.550781 1126.890625 859.648438 C 1118.5625 862.0625 1115.054688 858.332031 1116.152344 848.246094 C 1116.808594 841.226562 1117.246094 841.007812 1127.550781 840.351562 C 1134.5625 839.914062 1139.386719 838.378906 1141.359375 835.964844 C 1145.085938 830.921875 1144.867188 828.949219 1140.480469 829.386719 C 1138.289062 829.605469 1127.988281 830.261719 1117.464844 830.484375 Z M 1117.464844 830.484375 "/>
<path style=" stroke:none;fill-rule:nonzero;fill:rgb(0%,0%,0%);fill-opacity:1;" d="M 229.9375 832.675781 C 229.71875 833.550781 229.71875 836.402344 229.9375 838.816406 C 230.59375 848.027344 223.800781 892.324219 220.511719 900.21875 C 218.539062 904.824219 217.441406 908.992188 217.882812 909.648438 C 218.539062 910.085938 221.828125 908.550781 225.335938 905.921875 C 232.128906 901.316406 236.734375 888.597656 236.734375 875.21875 C 236.734375 871.710938 237.609375 868.203125 238.484375 867.542969 C 240.460938 866.449219 249.226562 883.992188 250.324219 891.226562 C 251.636719 900 255.804688 896.492188 259.75 883.773438 C 265.886719 863.378906 267.640625 864.253906 270.707031 888.597656 C 271.585938 894.957031 273.339844 899.121094 275.53125 900 C 282.765625 902.851562 283.421875 897.808594 279.914062 867.761719 C 275.75 833.332031 274.871094 830.703125 268.953125 831.578125 C 265.886719 832.015625 263.253906 835.964844 259.96875 845.394531 C 257.554688 852.632812 254.488281 858.113281 253.171875 857.675781 C 252.078125 857.457031 249.007812 851.535156 246.597656 844.738281 C 242.871094 833.992188 241.335938 832.238281 236.292969 831.578125 C 232.789062 831.140625 230.15625 831.578125 229.9375 832.675781 Z M 229.9375 832.675781 "/>
<path style=" stroke:none;fill-rule:nonzero;fill:rgb(0%,0%,0%);fill-opacity:1;" d="M 316.519531 835.308594 C 295.039062 848.464844 299.863281 893.859375 323.316406 898.246094 C 339.535156 901.316406 351.59375 886.402344 351.371094 863.597656 C 351.152344 848.246094 345.015625 837.0625 334.933594 833.550781 C 325.945312 830.261719 324.410156 830.484375 316.519531 835.308594 Z M 335.808594 848.683594 C 341.289062 859.429688 341.070312 877.191406 335.152344 884.648438 C 325.289062 897.148438 315.644531 887.28125 315.644531 864.472656 C 315.644531 854.605469 316.738281 850 320.246094 845.613281 C 326.164062 838.15625 330.988281 839.035156 335.808594 848.683594 Z M 335.808594 848.683594 "/>
<path style=" stroke:none;fill-rule:nonzero;fill:rgb(0%,0%,0%);fill-opacity:1;" d="M 363.867188 831.796875 C 363.867188 832.457031 365.183594 835.527344 366.9375 838.816406 C 368.6875 842.105469 372.414062 857.015625 375.265625 871.929688 C 380.308594 898.683594 380.527344 899.121094 386.226562 899.121094 C 391.703125 899.121094 392.144531 898.246094 398.0625 873.246094 C 401.347656 859.210938 405.296875 843.859375 406.828125 839.253906 L 409.898438 830.921875 L 402.664062 831.578125 C 396.527344 832.238281 395.429688 833.113281 393.675781 841.007812 C 392.800781 845.832031 390.609375 853.289062 389.074219 857.457031 C 386.003906 865.789062 385.785156 865.789062 381.183594 845.394531 C 378.332031 832.894531 377.675781 832.238281 371.101562 831.578125 C 367.15625 831.140625 363.867188 831.359375 363.867188 831.796875 Z M 363.867188 831.796875 "/>
<path style=" stroke:none;fill-rule:nonzero;fill:rgb(0%,0%,0%);fill-opacity:1;" d="M 482.234375 833.113281 C 482.234375 834.429688 483.328125 835.964844 484.644531 836.621094 C 486.179688 837.71875 486.835938 848.683594 486.398438 868.203125 C 485.960938 889.691406 486.617188 898.027344 488.371094 897.808594 C 489.90625 897.585938 491.878906 897.367188 493.191406 897.148438 C 494.289062 897.148438 495.824219 891.007812 496.699219 883.773438 C 498.671875 865.789062 503.496094 866.007812 510.507812 883.773438 C 514.894531 894.515625 517.523438 898.246094 524.757812 902.414062 C 529.578125 905.261719 533.964844 907.238281 534.402344 906.796875 C 534.839844 906.359375 532.867188 902.632812 529.800781 898.683594 C 526.949219 894.738281 522.347656 886.621094 519.714844 880.484375 L 514.894531 869.738281 L 519.496094 863.597656 C 527.167969 853.070312 525.195312 839.691406 514.894531 834.429688 C 508.097656 830.921875 482.234375 829.824219 482.234375 833.113281 Z M 511.167969 843.640625 C 516.207031 848.246094 516.207031 853.507812 510.949219 858.332031 C 503.496094 865.132812 498.671875 862.0625 498.015625 850.21875 C 497.359375 840.789062 497.796875 839.914062 502.179688 839.914062 C 504.808594 839.914062 508.976562 841.449219 511.167969 843.640625 Z M 511.167969 843.640625 "/>
<path style=" stroke:none;fill-rule:nonzero;fill:rgb(0%,0%,0%);fill-opacity:1;" d="M 551.28125 836.621094 C 541.195312 846.492188 546.894531 862.9375 562.019531 867.542969 C 577.582031 872.367188 578.679688 890.351562 563.335938 890.351562 C 556.101562 890.351562 552.375 886.621094 552.375 879.605469 C 552.375 874.5625 552.15625 874.34375 547.992188 878.289062 C 545.582031 880.484375 543.609375 883.992188 543.609375 886.183594 C 543.609375 892.324219 554.128906 899.121094 563.773438 899.121094 C 579.777344 899.121094 590.296875 882.015625 582.84375 868.203125 C 581.75 865.789062 575.171875 861.402344 568.597656 858.550781 C 557.636719 853.726562 556.539062 852.632812 557.199219 847.148438 C 558.292969 836.402344 574.296875 838.378906 574.296875 849.34375 C 574.296875 853.507812 574.515625 853.726562 578.679688 849.78125 C 584.378906 844.738281 584.160156 841.667969 578.023438 835.964844 C 570.789062 829.167969 558.292969 829.386719 551.28125 836.621094 Z M 551.28125 836.621094 "/>
<path style=" stroke:none;fill-rule:nonzero;fill:rgb(0%,0%,0%);fill-opacity:1;" d="M 700.335938 871.492188 L 700.335938 912.0625 L 706.472656 906.359375 C 711.953125 900.878906 712.390625 899.121094 712.390625 883.113281 L 712.390625 865.570312 L 716.554688 871.050781 C 718.964844 873.902344 722.910156 880.261719 725.542969 885.308594 C 731.023438 895.832031 735.40625 900 738.695312 898.027344 C 740.007812 897.148438 740.886719 885.308594 740.886719 867.324219 C 740.886719 850.21875 741.761719 837.5 743.078125 836.621094 C 747.679688 833.773438 745.050781 831.140625 737.597656 831.140625 C 730.363281 831.140625 729.925781 831.578125 729.925781 838.15625 C 729.925781 842.105469 729.269531 849.121094 728.390625 853.949219 L 727.078125 862.28125 L 719.183594 847.367188 C 713.046875 835.527344 710.199219 832.015625 705.8125 831.578125 L 700.335938 830.921875 Z M 700.335938 871.492188 "/>
<path style=" stroke:none;fill-rule:nonzero;fill:rgb(0%,0%,0%);fill-opacity:1;" d="M 766.53125 864.472656 L 766.96875 897.808594 L 778.585938 897.148438 C 793.273438 896.492188 799.628906 893.421875 805.988281 883.992188 C 809.714844 878.289062 811.027344 873.464844 811.027344 863.816406 C 811.027344 852.632812 810.152344 850 804.234375 843.421875 C 797.21875 835.308594 786.917969 831.140625 773.765625 831.140625 L 766.09375 831.140625 Z M 786.917969 843.203125 C 794.371094 847.148438 800.070312 856.796875 800.070312 865.570312 C 800.070312 876.753906 786.480469 892.984375 780.339844 889.253906 C 778.148438 887.9375 777.273438 839.914062 779.246094 839.914062 C 780.121094 839.914062 783.410156 841.449219 786.917969 843.203125 Z M 786.917969 843.203125 "/>
<path style=" stroke:none;fill-rule:nonzero;fill:rgb(0%,0%,0%);fill-opacity:1;" d="M 862.320312 834.648438 C 862.976562 836.621094 863.636719 854.824219 863.636719 875.21875 C 863.636719 895.613281 864.511719 912.28125 865.390625 912.28125 C 869.117188 912.28125 873.28125 900 874.375 885.964844 L 875.691406 871.929688 L 885.554688 869.078125 C 901.117188 864.691406 906.597656 854.605469 900.679688 841.449219 C 897.390625 833.992188 889.941406 831.140625 874.15625 831.140625 C 862.976562 831.140625 861.226562 831.578125 862.320312 834.648438 Z M 889.5 842.542969 C 891.035156 844.078125 892.132812 847.808594 892.132812 850.878906 C 892.132812 857.894531 888.40625 861.84375 882.046875 861.84375 C 878.320312 861.84375 876.789062 860.085938 875.691406 855.261719 C 873.71875 846.050781 876.128906 839.914062 882.046875 839.914062 C 884.679688 839.914062 887.964844 841.007812 889.5 842.542969 Z M 889.5 842.542969 "/>
<path style=" stroke:none;fill-rule:nonzero;fill:rgb(0%,0%,0%);fill-opacity:1;" d="M 927.640625 846.929688 C 923.914062 867.105469 914.488281 901.535156 911.421875 905.261719 C 906.378906 911.183594 912.078125 910.308594 919.96875 903.726562 C 926.105469 898.902344 929.175781 894.078125 931.148438 887.0625 C 933.339844 878.949219 934.65625 877.191406 939.039062 877.191406 C 943.644531 877.191406 944.519531 878.507812 946.054688 887.5 C 948.027344 898.246094 951.535156 901.097656 957.890625 896.929688 C 960.738281 895.175781 960.519531 891.886719 955.039062 871.273438 C 944.082031 828.289062 945.394531 831.140625 937.503906 831.140625 C 930.273438 831.140625 930.273438 831.140625 927.640625 846.929688 Z M 940.355469 866.449219 C 940.355469 868.859375 939.476562 870.175781 938.164062 869.515625 C 937.066406 868.859375 935.972656 866.226562 935.972656 863.816406 C 935.972656 861.402344 937.066406 860.085938 938.164062 860.746094 C 939.476562 861.402344 940.355469 864.035156 940.355469 866.449219 Z M 940.355469 866.449219 "/>
<path style=" stroke:none;fill-rule:nonzero;fill:rgb(0%,0%,0%);fill-opacity:1;" d="M 995.152344 833.773438 C 982.660156 840.351562 975.425781 860.527344 979.589844 876.753906 C 984.632812 894.738281 998.003906 903.070312 1012.910156 896.929688 C 1022.773438 892.761719 1024.308594 888.15625 1018.167969 880.921875 C 1011.8125 873.683594 1010.496094 873.464844 1010.496094 880.261719 C 1010.496094 892.542969 998.222656 893.421875 993.839844 881.578125 C 990.113281 871.050781 990.113281 861.183594 994.277344 851.097656 C 999.320312 838.15625 1006.332031 836.84375 1010.71875 848.027344 C 1012.691406 853.507812 1012.910156 853.507812 1017.074219 849.78125 C 1022.554688 844.957031 1022.554688 841.667969 1017.511719 837.0625 C 1011.8125 832.015625 1001.730469 830.484375 995.152344 833.773438 Z M 995.152344 833.773438 "/>
<path style=" stroke:none;fill-rule:nonzero;fill:rgb(0%,0%,0%);fill-opacity:1;" d="M 1042.0625 834.429688 C 1042.71875 836.402344 1043.378906 851.972656 1043.378906 868.640625 L 1043.378906 899.34375 L 1049.515625 898.683594 C 1054.996094 898.027344 1055.433594 897.367188 1056.527344 884.867188 C 1057.625 871.929688 1057.625 871.929688 1061.132812 877.191406 C 1063.105469 880.261719 1066.394531 886.183594 1068.367188 890.570312 C 1070.558594 895.394531 1074.941406 899.78125 1079.765625 901.972656 C 1090.503906 907.238281 1092.476562 906.578125 1087.65625 899.5625 C 1078.667969 886.402344 1067.488281 864.035156 1067.488281 858.992188 C 1067.488281 856.140625 1070.996094 849.121094 1075.160156 843.421875 L 1083.050781 833.332031 L 1075.378906 833.332031 C 1069.242188 833.332031 1067.050781 834.648438 1063.761719 839.914062 C 1058.941406 848.246094 1056.96875 848.246094 1056.089844 839.253906 C 1055.433594 833.113281 1054.554688 832.238281 1047.980469 831.578125 C 1041.84375 830.921875 1040.746094 831.359375 1042.0625 834.429688 Z M 1042.0625 834.429688 "/>
<path style=" stroke:none;fill-rule:nonzero;fill:rgb(0%,0%,0%);fill-opacity:1;" d="M 1160.867188 834.867188 C 1161.960938 837.0625 1162.839844 852.191406 1162.839844 868.421875 L 1162.839844 898.027344 L 1168.320312 898.027344 C 1173.582031 898.027344 1173.800781 897.367188 1174.457031 884.210938 C 1175.332031 864.691406 1182.785156 866.667969 1190.019531 888.597656 C 1191.992188 894.296875 1195.28125 898.246094 1201.855469 901.972656 C 1206.898438 905.042969 1211.28125 907.238281 1211.71875 906.796875 C 1212.160156 906.578125 1209.527344 901.972656 1206.019531 896.710938 C 1202.734375 891.449219 1198.128906 882.894531 1195.9375 877.851562 C 1191.992188 868.859375 1191.992188 868.640625 1196.597656 862.71875 C 1201.199219 857.015625 1202.515625 848.027344 1199.882812 841.007812 C 1197.472656 835.085938 1186.730469 831.140625 1172.484375 831.140625 C 1160.429688 831.140625 1159.332031 831.578125 1160.867188 834.867188 Z M 1188.925781 843.421875 C 1193.527344 848.027344 1193.308594 852.191406 1187.828125 857.675781 C 1181.472656 864.035156 1176.210938 862.28125 1175.332031 853.289062 C 1174.894531 849.34375 1175.113281 844.738281 1175.773438 842.984375 C 1177.308594 838.816406 1184.757812 839.035156 1188.925781 843.421875 Z M 1188.925781 843.421875 "/>
<path style=" stroke:none;fill-rule:nonzero;fill:rgb(0%,0%,0%);fill-opacity:1;" d="M 1228.816406 837.9375 C 1225.75 841.667969 1223.117188 846.273438 1223.117188 848.464844 C 1223.117188 854.824219 1229.476562 861.621094 1240.433594 867.324219 C 1252.710938 873.464844 1255.339844 877.851562 1250.519531 885.308594 C 1247.667969 889.472656 1245.476562 890.351562 1239.996094 889.914062 C 1234.078125 889.472656 1232.761719 888.15625 1232.324219 883.113281 C 1231.449219 876.097656 1226.40625 875.21875 1223.117188 881.578125 C 1221.367188 884.648438 1221.367188 887.28125 1223.117188 890.351562 C 1231.449219 905.703125 1259.726562 899.5625 1263.671875 881.359375 C 1265.644531 872.367188 1260.601562 865.132812 1247.886719 858.992188 C 1235.613281 853.070312 1232.105469 848.246094 1236.050781 843.421875 C 1240.433594 838.378906 1246.574219 839.253906 1250.738281 845.394531 C 1253.585938 849.78125 1254.902344 850.4375 1257.3125 848.464844 C 1261.917969 844.738281 1261.039062 840.789062 1254.683594 835.746094 C 1245.914062 828.949219 1235.613281 829.605469 1228.816406 837.9375 Z M 1228.816406 837.9375 "/>
</g>
</svg>
