<svg xmlns="http://www.w3.org/2000/svg" version="1.0" preserveAspectRatio="xMidYMid meet" viewBox="99.36 39.05 477.33 376.95">

<g transform="translate(0.000000,456.000000) scale(0.100000,-0.100000)" fill="#000000" stroke="none">
<path d="M4278 4147 c-14 -12 -33 -36 -42 -54 -24 -48 -47 -194 -52 -338 -3 -71 -7 -140 -10 -153 -4 -22 -5 -22 -37 -6 -17 9 -57 40 -87 68 -30 29 -77 66 -105 82 -48 28 -55 29 -205 33 -85 2 -256 -3 -380 -10 -124 -8 -254 -14 -290 -14 l-65 0 -2 136 c-1 75 -6 154 -12 177 -15 52 -60 92 -107 92 -49 0 -53 -22 -11 -70 44 -52 57 -103 57 -227 l0 -98 -162 -1 c-141 0 -260 -10 -346 -31 -12 -3 -27 -13 -32 -23 -12 -22 -28 -396 -39 -918 -5 -217 -13 -398 -18 -403 -5 -5 -115 -14 -244 -19 -245 -11 -279 -14 -279 -30 0 -27 44 -30 286 -20 221 10 267 9 253 -4 -2 -2 -77 -9 -166 -15 -141 -9 -170 -14 -212 -36 -47 -23 -51 -24 -81 -9 -39 20 -97 14 -134 -12 -55 -40 -104 -192 -94 -292 4 -39 23 -91 66 -174 2 -5 -57 -8 -132 -8 -126 0 -170 -8 -128 -25 40 -16 726 -24 2097 -24 1349 0 1907 7 1938 26 26 16 -46 21 -301 22 l-262 1 29 52 c16 28 36 55 43 58 7 4 49 13 93 20 89 14 147 39 169 73 37 57 31 187 -10 237 l-25 29 22 30 c17 23 22 47 26 118 7 147 -30 189 -195 218 -53 10 -103 22 -109 28 -10 7 -13 55 -13 178 0 92 -4 179 -9 192 -7 19 -42 38 -168 92 -143 62 -164 68 -219 67 l-61 -2 -7 37 c-3 21 -6 63 -6 93 0 30 -4 61 -8 68 -5 7 -36 17 -70 23 -57 10 -61 13 -56 34 9 36 -22 83 -76 116 -58 36 -55 13 -40 277 14 238 14 236 67 293 24 26 42 53 38 58 -11 18 -49 12 -77 -12z m-598 -408 c-19 -4 -47 -11 -62 -15 -40 -9 -51 -26 -38 -60 15 -38 6 -54 -29 -54 -25 0 -34 7 -50 38 -34 66 -33 66 -225 59 -243 -9 -260 -19 -205 -116 31 -53 32 -62 33 -163 l1 -107 -30 -3 -30 -3 -8 -95 c-4 -52 -6 -133 -5 -180 l3 -85 95 0 c52 0 112 3 132 7 l36 6 -14 -33 c-30 -74 -35 -430 -6 -483 13 -22 17 -23 135 -20 l122 3 8 45 c16 89 19 95 57 95 35 0 35 1 48 60 19 90 4 193 -32 217 -6 4 -23 8 -37 8 -23 0 -27 5 -33 40 -7 48 -28 63 -111 81 l-60 14 43 3 c69 5 73 20 61 195 -5 82 -7 152 -4 158 11 16 45 10 46 -8 0 -10 2 -94 2 -188 l2 -169 35 -9 c34 -8 286 -15 568 -16 l132 -1 0 -236 0 -236 -27 18 c-73 48 -80 49 -263 48 -289 -1 -347 -33 -413 -226 -11 -32 -27 -19 -27 21 l0 39 -47 6 c-27 3 -106 8 -176 12 l-128 6 -16 -41 c-15 -38 -19 -42 -47 -39 l-31 3 -6 270 c-3 149 -6 271 -7 273 -1 1 -9 2 -17 2 -20 0 -23 -32 -30 -294 -5 -228 -10 -256 -42 -256 -20 0 -27 28 -12 47 11 12 15 91 20 357 4 188 12 414 19 502 11 147 10 165 -5 195 -15 28 -16 50 -10 147 3 63 9 120 11 127 4 9 83 15 287 24 155 7 293 14 307 15 14 2 45 3 70 3 l45 1 -35 -9z m228 -9 c71 -32 135 -91 113 -105 -5 -3 -37 19 -71 50 -42 37 -73 56 -98 61 -55 9 -61 12 -22 13 19 0 54 -8 78 -19z m-1053 -19 c80 -38 80 -36 76 -157 -1 -60 -6 -113 -11 -119 -36 -43 -64 -902 -34 -1067 l6 -38 -84 0 c-47 0 -160 3 -252 7 -162 6 -168 7 -176 29 -5 12 -5 79 0 151 5 70 14 337 20 593 5 256 13 493 16 527 l6 62 52 10 c74 15 108 18 231 19 89 1 118 -2 150 -17z m1169 -121 c69 -8 110 -31 91 -49 -6 -5 -127 -15 -270 -21 -157 -7 -281 -17 -312 -26 -55 -15 -85 -45 -98 -97 l-7 -27 -108 0 c-59 0 -121 -3 -139 -6 -26 -6 -32 -3 -41 20 -15 40 4 126 34 153 29 25 64 29 451 48 336 16 319 16 399 5z m273 -106 c15 -12 29 -28 31 -36 3 -13 -20 -17 -150 -22 -214 -9 -317 -14 -515 -27 -95 -6 -177 -8 -183 -4 -34 21 14 70 84 85 71 14 350 28 543 26 147 -1 164 -3 190 -22z m-138 -106 c-29 -59 -195 -298 -206 -298 -24 0 -13 36 30 95 23 33 58 85 77 115 41 67 79 110 97 110 11 0 11 -5 2 -22z m-219 2 c0 -22 -210 -330 -225 -330 -25 0 -17 21 35 98 27 40 66 102 86 137 42 76 104 132 104 95z m-177 -28 c-90 -139 -189 -282 -195 -282 -14 0 -9 79 7 116 19 47 104 172 124 184 9 5 31 10 49 10 l34 0 -19 -28z m546 -64 c-6 -13 -37 -58 -67 -101 -48 -69 -56 -77 -69 -64 -19 18 -14 28 75 150 60 82 67 89 70 65 2 -15 -2 -37 -9 -50z m92 37 c4 -16 7 -62 8 -101 1 -69 0 -72 -24 -78 -14 -4 -30 -4 -35 -1 -11 7 -13 135 -4 184 9 43 46 40 55 -4z m-1061 -8 c0 -24 -83 -127 -102 -127 -4 0 -8 13 -8 30 0 20 12 41 38 70 38 39 72 52 72 27z m-156 -63 c3 -9 6 -57 6 -109 0 -96 9 -119 48 -120 8 0 17 -5 19 -12 5 -13 -51 -27 -88 -21 -23 3 -24 6 -27 108 -2 58 0 120 3 138 6 34 29 43 39 16z m256 -47 c0 -30 -112 -158 -126 -144 -8 7 8 32 65 105 41 52 61 64 61 39z m1252 -103 c91 -33 197 -82 221 -102 15 -14 17 -41 16 -301 -1 -323 -6 -359 -54 -373 -41 -12 -552 -22 -558 -11 -10 16 -20 477 -13 565 8 85 8 86 39 99 18 8 84 44 147 81 63 37 118 68 122 68 4 0 40 -12 80 -26z m-272 -14 c0 -6 -28 -29 -62 -51 -53 -34 -69 -40 -98 -35 -19 3 -142 6 -272 6 -205 0 -238 2 -238 15 0 11 12 15 45 15 25 0 102 11 172 24 71 14 139 27 153 29 55 9 300 7 300 -3z m-1046 -210 c5 -5 6 -16 2 -25 -5 -13 -13 -15 -34 -10 -35 9 -44 18 -36 39 5 13 13 16 33 11 14 -4 30 -10 35 -15z m73 -32 c-3 -7 -5 -2 -5 12 0 14 2 19 5 13 2 -7 2 -19 0 -25z m157 -40 c14 -23 -3 -53 -30 -53 -15 0 -20 9 -22 38 -3 35 -1 38 19 35 12 -2 27 -11 33 -20z m-150 -70 c11 -97 8 -130 -11 -126 -15 3 -19 16 -21 77 -2 41 -1 80 2 88 11 28 23 11 30 -39z m-76 -40 l3 -78 -30 0 c-51 0 -71 48 -55 129 6 30 9 32 43 29 l36 -3 3 -77z m202 2 c0 -5 -2 -10 -4 -10 -3 0 -8 5 -11 10 -3 6 -1 10 4 10 6 0 11 -4 11 -10z m-80 -122 c0 -23 -30 -30 -115 -26 -62 3 -70 5 -73 24 -3 20 1 21 93 20 83 -1 95 -3 95 -18z m1687 -33 c39 -26 56 -78 51 -161 -2 -40 -7 -76 -11 -81 -10 -9 -195 -23 -214 -16 -20 8 -31 55 -36 150 -8 141 -11 137 95 130 58 -4 99 -12 115 -22z m-1807 -45 c0 -16 -7 -20 -30 -20 -23 0 -30 4 -30 20 0 16 7 20 30 20 23 0 30 -4 30 -20z m80 0 c0 -11 -7 -20 -15 -20 -8 0 -15 9 -15 20 0 11 7 20 15 20 8 0 15 -9 15 -20z m660 9 c84 -19 130 -89 138 -208 4 -55 1 -75 -9 -82 -12 -7 -349 -14 -349 -6 0 23 -32 172 -40 187 -16 30 -49 48 -102 55 -50 8 -57 15 -34 34 32 26 309 40 396 20z m-332 -101 c23 -23 13 -38 -23 -38 -121 0 -185 -118 -185 -340 0 -114 16 -190 50 -233 11 -14 20 -27 20 -29 0 -4 -1424 2 -1428 7 -2 2 3 14 11 26 9 12 24 56 33 98 10 42 22 82 27 89 5 6 26 12 46 12 30 0 42 -7 71 -40 45 -52 68 -55 415 -66 331 -11 463 -11 597 0 125 10 120 5 123 131 3 100 19 178 57 277 35 94 62 118 127 118 26 0 52 -5 59 -12z m-330 -43 c6 -3 12 -16 12 -30 0 -25 -1 -25 -82 -24 -46 0 -103 4 -128 7 -39 6 -45 10 -48 33 l-3 26 118 -4 c65 -2 124 -6 131 -8z m-1054 -93 c2 -4 0 -26 -5 -48 -5 -21 -13 -72 -18 -112 -5 -40 -11 -76 -14 -79 -3 -3 -43 -7 -89 -10 -61 -4 -87 -1 -99 9 -13 10 -79 206 -79 232 0 12 296 20 304 8z m96 -7 c0 -8 -10 -40 -22 -72 -23 -61 -29 -141 -15 -205 11 -52 -9 -49 -33 5 -22 48 -26 136 -9 188 21 63 79 125 79 84z m180 -6 c0 -6 -7 -39 -16 -73 -12 -43 -15 -88 -11 -154 4 -82 2 -93 -12 -90 -20 4 -40 60 -40 118 -1 53 23 155 45 188 15 23 34 30 34 11z m194 -56 c-5 -32 -8 -104 -7 -160 1 -85 -1 -103 -13 -103 -17 0 -44 59 -46 98 -1 30 25 151 41 195 6 15 16 27 22 27 8 0 9 -16 3 -57z m365 45 l144 -12 18 -30 c40 -65 38 -66 -155 -66 l-175 0 -20 27 c-24 30 -36 67 -26 82 8 14 39 14 214 -1z m551 -33 c23 -46 27 -302 6 -344 -22 -41 -71 -44 -107 -5 -22 24 -24 35 -27 146 -2 66 -1 136 3 155 15 79 94 110 125 48z m-1744 -59 c58 -103 28 -275 -48 -284 -42 -5 -61 42 -61 153 0 90 8 120 41 158 23 26 43 17 68 -27z m-227 15 c26 -26 35 -77 29 -163 -6 -84 -30 -123 -74 -123 -42 0 -56 34 -50 117 6 77 23 146 44 171 19 22 27 22 51 -2z m966 -22 c0 -29 -43 -52 -80 -43 -43 11 -32 69 15 76 40 6 65 -6 65 -33z m145 16 c0 -14 -4 -25 -10 -25 -5 0 -10 11 -10 25 0 14 5 25 10 25 6 0 10 -11 10 -25z m45 4 c4 -11 4 -23 0 -27 -7 -7 -25 17 -25 36 0 20 18 14 25 -9z m2276 5 c19 -23 18 -156 -1 -179 -40 -48 -133 -58 -700 -75 -173 -5 -369 -13 -436 -16 l-121 -7 -6 39 c-4 21 -7 74 -7 116 0 72 2 78 23 83 67 14 287 26 657 36 228 6 417 13 419 15 2 2 39 4 81 4 59 0 81 -4 91 -16z m-2668 0 c3 -4 2 -15 -4 -25 -10 -20 -79 -28 -79 -9 0 6 0 13 0 18 -1 4 14 10 32 13 18 4 36 7 39 8 3 0 9 -2 12 -5z m1368 -80 c4 -16 7 -64 8 -107 1 -85 -11 -97 -39 -41 -20 41 -27 164 -9 175 21 13 33 5 40 -27z m-541 -11 c8 -7 -34 -75 -57 -91 -18 -11 -67 -16 -203 -20 -157 -4 -180 -3 -180 10 0 9 7 21 16 29 8 7 24 30 35 52 l20 39 182 -7 c100 -4 184 -9 187 -12z m-848 -25 c9 -7 19 -34 23 -61 5 -38 3 -48 -9 -53 -43 -16 -96 31 -96 85 0 35 51 53 82 29z m388 1 c0 -18 -41 -70 -51 -64 -10 7 -12 58 -2 68 11 11 53 8 53 -4z m-160 -59 c14 -58 9 -70 -31 -70 -45 0 -67 16 -75 55 -10 53 -1 65 50 65 l44 0 12 -50z m1885 -176 c20 -25 36 -47 34 -49 -2 -2 -169 -5 -370 -7 l-366 -3 46 45 46 45 145 6 c80 3 209 6 286 7 l142 2 37 -46z"/>
<path d="M2578 3649 c-32 -4 -67 -13 -77 -19 -22 -11 -34 -69 -29 -139 3 -40 6 -46 33 -53 38 -11 326 1 343 14 27 23 3 134 -38 178 -26 28 -32 30 -102 29 -40 -1 -99 -5 -130 -10z m196 -35 c19 -18 50 -120 41 -134 -4 -6 -65 -10 -155 -10 l-148 0 -6 26 c-6 24 -3 59 10 106 6 21 26 25 146 27 76 1 100 -2 112 -15z"/>
<path d="M4525 3004 c-60 -31 -117 -62 -126 -70 -14 -13 -18 -52 -24 -253 -8 -252 -2 -301 35 -321 18 -9 260 -6 398 6 l62 6 -1 216 c0 119 -4 250 -8 290 -8 84 -15 92 -116 141 -98 48 -98 48 -220 -15z m95 -287 c0 -277 -3 -327 -21 -327 -10 0 -13 579 -3 604 18 47 24 -23 24 -277z m64 267 c8 -21 8 -373 -1 -496 -5 -77 -9 -98 -21 -98 -12 0 -14 11 -9 68 4 37 7 174 7 305 0 215 6 268 24 221z m-124 -294 c0 -182 -4 -291 -10 -295 -7 -4 -10 97 -10 295 0 198 3 299 10 295 6 -4 10 -113 10 -295z m194 268 c3 -13 6 -146 6 -295 0 -224 -2 -273 -14 -273 -20 0 -25 101 -19 363 6 212 12 260 27 205z m-249 -8 c9 -15 -7 -560 -17 -560 -4 0 -8 128 -8 285 0 262 4 309 25 275z m323 -289 c-2 -169 -7 -266 -13 -266 -6 0 -11 101 -13 279 -2 249 -1 277 13 266 13 -11 15 -50 13 -279z m-383 154 c9 -123 3 -411 -8 -422 -5 -4 -12 -1 -17 7 -11 17 -14 503 -3 513 17 17 22 0 28 -98z"/>
<path d="M5028 2489 c-13 -7 -18 -23 -18 -52 0 -47 13 -67 45 -67 12 0 26 5 33 12 19 19 14 76 -8 98 -23 23 -28 24 -52 9z"/>
<path d="M5123 2493 c-15 -5 -17 -81 -4 -102 11 -17 56 -18 76 -1 16 13 20 57 7 76 -16 24 -54 38 -79 27z"/>
<path d="M4103 2445 c-18 -12 -23 -26 -23 -59 0 -54 13 -66 70 -66 54 0 70 13 70 56 0 63 -69 103 -117 69z"/>
<path d="M3943 2440 c-12 -5 -24 -18 -28 -30 -9 -27 2 -75 21 -91 18 -15 90 -17 105 -2 14 14 14 100 -1 118 -14 16 -63 19 -97 5z"/>
<path d="M1778 1663 c-44 -7 -34 -31 15 -38 80 -10 1813 -20 2437 -13 813 9 930 15 880 48 -15 9 -3270 12 -3332 3z"/>
<path d="M3360 1340 c-8 -5 -54 -10 -102 -10 -86 0 -99 -5 -77 -27 7 -7 9 -58 7 -147 l-3 -136 82 0 81 0 11 31 c16 46 14 52 -10 28 -14 -14 -30 -19 -57 -17 -37 3 -37 3 -37 48 0 43 2 45 30 48 29 4 45 16 45 37 0 6 -17 9 -41 7 l-40 -4 3 43 3 44 52 3 c41 2 55 8 64 23 14 26 8 41 -11 29z"/>
<path d="M4215 1340 c-11 -5 -55 -9 -99 -9 -71 -1 -77 -3 -70 -18 12 -23 12 -253 0 -275 -7 -16 -1 -18 72 -18 72 0 83 2 96 22 9 12 16 31 16 42 0 19 -1 19 -21 -3 -16 -17 -30 -21 -57 -19 -37 3 -37 3 -37 48 0 43 2 45 30 48 29 4 45 16 45 37 0 6 -17 9 -41 7 l-40 -4 3 43 3 44 50 3 c37 2 54 9 67 25 28 36 23 44 -17 27z"/>
<path d="M1895 1320 c-74 -4 -90 -8 -93 -22 -3 -14 3 -16 33 -11 26 4 40 2 46 -8 11 -17 11 -196 0 -261 l-8 -47 31 26 31 26 5 131 5 131 38 -1 c25 -1 37 3 37 12 0 23 -32 29 -125 24z"/>
<path d="M2084 1308 c3 -13 6 -83 6 -156 0 -133 0 -133 23 -130 20 3 22 9 25 66 3 54 6 62 22 62 11 0 20 -1 20 -2 0 -2 11 -29 24 -62 19 -46 32 -63 65 -83 37 -22 55 -21 32 3 -6 5 -25 40 -44 78 l-34 69 24 36 c30 44 25 85 -13 119 -21 18 -37 22 -91 22 -63 0 -65 -1 -59 -22z m124 -30 c7 -7 12 -23 12 -36 0 -42 -61 -71 -74 -36 -8 21 -8 69 1 77 11 11 48 8 61 -5z"/>
<path d="M2356 1313 c4 -10 10 -70 14 -133 6 -122 16 -150 57 -169 32 -15 49 -14 82 3 42 22 51 54 51 191 l0 125 -35 0 c-32 0 -35 -2 -25 -19 11 -21 14 -209 4 -235 -11 -28 -41 -38 -58 -20 -13 12 -16 41 -16 145 l0 129 -41 0 c-36 0 -40 -2 -33 -17z"/>
<path d="M2696 1309 c-18 -14 -26 -30 -26 -50 0 -45 16 -66 70 -94 57 -29 64 -38 56 -70 -12 -47 -91 -44 -91 3 -1 33 -10 34 -36 6 l-24 -26 33 -29 c24 -22 42 -29 73 -29 74 0 122 77 88 141 -5 11 -35 31 -65 44 -45 20 -54 28 -54 49 0 14 5 28 11 31 20 13 57 -5 66 -31 l8 -25 24 25 23 25 -27 25 c-35 33 -91 35 -129 5z"/>
<path d="M2904 1302 c-18 -27 -12 -41 10 -23 8 7 27 11 43 9 l28 -3 3 -129 c1 -72 -2 -142 -7 -158 -13 -35 -2 -36 32 0 25 26 26 32 29 157 l3 130 28 3 c16 2 35 -2 43 -9 17 -14 18 -8 2 25 -11 25 -13 26 -105 23 -86 -2 -95 -4 -109 -25z"/>
<path d="M3450 1311 c8 -15 10 -66 8 -157 l-3 -134 28 0 c59 0 117 22 147 57 26 30 30 41 30 95 0 106 -40 146 -159 156 -63 5 -63 5 -51 -17z m106 -37 c31 -21 54 -64 54 -101 0 -51 -62 -125 -90 -108 -11 7 -14 208 -3 218 9 10 10 9 39 -9z"/>
<path d="M3765 1176 l0 -156 28 0 c27 0 27 1 27 66 0 61 1 65 21 62 16 -2 27 -18 43 -61 17 -47 29 -62 62 -82 l41 -25 -45 90 -46 90 22 23 c15 16 22 36 22 64 0 58 -25 76 -108 81 l-67 4 0 -156z m119 98 c21 -21 20 -47 -3 -68 -30 -27 -55 -17 -59 23 -2 18 -1 39 2 47 7 19 41 18 60 -2z"/>
<path d="M4326 1313 c5 -10 9 -80 9 -156 l0 -137 62 0 c77 0 90 5 109 42 19 37 12 46 -15 19 -13 -13 -34 -21 -55 -21 -32 0 -34 2 -40 46 -3 26 -6 87 -6 135 l0 89 -36 0 c-31 0 -35 -2 -28 -17z"/>
<path d="M4651 1317 c-42 -21 -64 -62 -69 -126 -8 -104 33 -171 103 -171 67 0 115 65 115 155 0 63 -17 103 -56 134 -30 24 -58 26 -93 8z m68 -53 c16 -21 21 -41 21 -88 0 -71 -16 -110 -48 -114 -18 -3 -26 5 -42 40 -24 52 -25 87 -5 135 25 59 44 66 74 27z"/>
<path d="M2105 779 c-11 -4 -55 -8 -97 -8 -42 -1 -80 -5 -83 -11 -3 -5 -1 -10 5 -10 8 0 10 -44 9 -142 l-1 -143 58 -3 c77 -4 98 2 112 33 19 41 14 50 -12 26 -17 -16 -33 -22 -57 -19 -33 3 -34 4 -34 48 0 42 2 45 28 48 15 2 32 12 37 23 12 21 10 22 -38 19 -33 -2 -33 -2 -30 42 l3 43 51 3 c42 2 53 7 64 27 16 30 12 35 -15 24z"/>
<path d="M2957 721 c-7 -80 -45 -230 -68 -270 -11 -18 -18 -36 -15 -38 3 -3 23 9 44 27 29 23 43 44 51 76 9 37 15 44 35 44 26 0 36 -17 36 -60 0 -34 13 -44 44 -36 19 5 22 11 19 33 -9 52 -66 258 -74 267 -4 5 -21 10 -37 11 -29 2 -30 1 -35 -54z m53 -103 c0 -23 -3 -29 -11 -21 -6 6 -8 20 -4 32 9 30 15 26 15 -11z"/>
<path d="M5098 773 c-49 -2 -88 -8 -88 -13 0 -6 5 -10 11 -10 7 0 9 -46 7 -145 l-3 -145 70 0 c76 0 86 4 104 37 19 36 13 48 -13 24 -17 -16 -33 -22 -57 -19 -33 3 -34 4 -34 48 0 40 3 45 25 48 23 3 50 26 50 43 0 4 -13 4 -29 -1 -38 -11 -54 6 -49 52 3 32 5 33 52 36 32 2 54 9 63 20 17 23 16 32 -4 30 -10 -1 -57 -4 -105 -5z"/>
<path d="M1049 763 c-1 -4 -1 -17 0 -28 3 -42 -28 -244 -43 -280 -9 -21 -14 -40 -12 -43 3 -2 18 5 34 17 31 21 52 79 52 140 0 16 4 32 8 35 9 5 49 -75 54 -108 6 -40 25 -24 43 34 28 93 36 89 50 -22 4 -29 12 -48 22 -52 33 -13 36 10 20 147 -19 157 -23 169 -50 165 -14 -2 -26 -20 -41 -63 -11 -33 -25 -58 -31 -56 -5 1 -19 28 -30 59 -17 49 -24 57 -47 60 -16 2 -28 0 -29 -5z"/>
<path d="M1444 751 c-98 -60 -76 -267 31 -287 74 -14 129 54 128 158 -1 70 -29 121 -75 137 -41 15 -48 14 -84 -8z m88 -61 c25 -49 24 -130 -3 -164 -45 -57 -89 -12 -89 92 0 45 5 66 21 86 27 34 49 30 71 -14z"/>
<path d="M1660 767 c0 -3 6 -17 14 -32 8 -15 25 -83 38 -151 23 -122 24 -124 50 -124 25 0 27 4 54 118 15 64 33 134 40 155 l14 38 -33 -3 c-28 -3 -33 -7 -41 -43 -4 -22 -14 -56 -21 -75 -14 -38 -15 -38 -36 55 -13 57 -16 60 -46 63 -18 2 -33 1 -33 -1z"/>
<path d="M2200 761 c0 -6 5 -13 11 -16 7 -5 10 -55 8 -144 -2 -98 1 -136 9 -135 7 1 16 2 22 3 5 0 12 28 16 61 9 82 31 81 63 0 20 -49 32 -66 65 -85 22 -13 42 -22 44 -20 2 2 -7 19 -21 37 -13 18 -34 55 -46 83 l-22 49 21 28 c35 48 26 109 -21 133 -31 16 -149 21 -149 6z m132 -48 c23 -21 23 -45 -1 -67 -34 -31 -56 -17 -59 37 -3 43 -1 47 19 47 12 0 31 -7 41 -17z"/>
<path d="M2515 745 c-46 -45 -20 -120 49 -141 71 -22 76 -104 6 -104 -33 0 -50 17 -50 49 0 23 -1 24 -20 6 -11 -10 -20 -26 -20 -36 0 -28 48 -59 92 -59 73 0 121 78 87 141 -5 11 -35 31 -65 44 -50 22 -55 27 -52 52 5 49 78 40 78 -10 0 -19 1 -20 20 -2 26 23 25 37 -3 63 -33 31 -90 30 -122 -3z"/>
<path d="M3195 586 l0 -185 28 26 c25 25 27 33 27 106 l0 80 19 -25 c11 -13 29 -42 41 -65 25 -48 45 -67 60 -58 6 4 10 58 10 140 0 78 4 136 10 140 21 13 9 25 -25 25 -33 0 -35 -2 -35 -32 0 -18 -3 -50 -7 -72 l-6 -38 -36 68 c-28 54 -41 70 -61 72 l-25 3 0 -185z"/>
<path d="M3497 618 l2 -152 53 3 c67 3 96 17 125 60 17 26 23 48 23 92 0 51 -4 63 -31 93 -32 37 -79 56 -139 56 l-35 0 2 -152z m93 97 c34 -18 60 -62 60 -102 0 -51 -62 -125 -90 -108 -10 6 -14 225 -5 225 4 0 19 -7 35 -15z"/>
<path d="M3934 754 c3 -9 6 -92 6 -185 0 -93 4 -169 8 -169 17 0 36 56 41 120 l6 64 45 13 c71 20 96 66 69 126 -15 34 -49 47 -121 47 -51 0 -59 -2 -54 -16z m124 -36 c7 -7 12 -24 12 -38 0 -32 -17 -50 -46 -50 -17 0 -24 8 -29 30 -9 42 2 70 29 70 12 0 27 -5 34 -12z"/>
<path d="M4232 698 c-17 -92 -60 -249 -74 -266 -23 -27 3 -23 39 7 28 22 42 44 51 76 10 37 16 45 36 45 21 0 25 -6 32 -47 9 -49 25 -62 54 -43 13 8 12 23 -13 117 -50 196 -44 183 -80 183 -33 0 -33 0 -45 -72z m58 -89 c0 -11 -4 -17 -10 -14 -5 3 -10 15 -10 26 0 11 5 17 10 14 6 -3 10 -15 10 -26z"/>
<path d="M4540 758 c-57 -30 -90 -122 -71 -196 23 -82 84 -120 152 -92 45 19 52 40 24 73 -29 33 -35 34 -35 3 0 -56 -56 -60 -76 -6 -17 48 -17 93 2 139 23 59 55 65 75 14 9 -25 10 -25 29 -8 25 22 25 37 2 58 -26 23 -72 30 -102 15z"/>
<path d="M4754 755 c3 -9 6 -80 6 -156 l0 -140 28 3 c25 3 27 6 32 63 5 59 5 59 21 35 9 -14 24 -41 33 -61 10 -22 30 -42 52 -52 49 -24 58 -21 36 11 -41 60 -92 162 -92 185 0 13 16 45 35 71 l36 46 -35 0 c-28 0 -38 -6 -53 -30 -22 -38 -31 -38 -35 3 -3 28 -7 32 -37 35 -28 3 -33 1 -27 -13z"/>
<path d="M5296 753 c5 -10 9 -79 9 -153 l0 -135 25 0 c24 0 25 3 28 63 4 89 38 80 71 -20 9 -26 24 -44 54 -61 23 -14 43 -24 45 -22 2 1 -10 22 -26 46 -15 24 -36 63 -46 86 -18 41 -18 42 3 69 21 26 27 67 15 99 -11 27 -60 45 -125 45 -55 0 -60 -2 -53 -17z m128 -39 c21 -21 20 -40 -5 -65 -29 -29 -53 -21 -57 20 -2 18 -1 39 2 47 7 19 41 18 60 -2z"/>
<path d="M5606 739 c-14 -17 -26 -38 -26 -48 0 -29 29 -60 79 -86 56 -28 68 -48 46 -82 -13 -19 -23 -23 -48 -21 -27 2 -33 8 -35 31 -4 32 -27 36 -42 7 -8 -14 -8 -26 0 -40 38 -70 167 -42 185 41 9 41 -14 74 -72 102 -56 27 -72 49 -54 71 20 23 48 19 67 -9 13 -20 19 -23 30 -14 21 17 17 35 -12 58 -40 31 -87 28 -118 -10z"/>
</g>
</svg>